<svg xmlns="http://www.w3.org/2000/svg" viewBox="0 0 48 48" width="48" height="48">
  <path fill="#F36437" d="M24 0C10.738 0 0 10.738 0 24h48C48 10.765 37.262 0 24 0"/>
  <path fill="#F36437" d="M47.976 24.641H.03c0 .215 0 .403.027.618h47.92z"/>
  <path fill="#F36437" d="M47.918 25.8H.078c.028.215.028.403.054.617h47.759c0-.214.027-.429.027-.617"/>
  <path fill="#F36437" d="M.268 27.628h47.436c.027-.188.054-.402.08-.59H.189c.026.188.053.402.08.59"/>
  <path fill="#F36437" d="M.512 28.968h46.953c.054-.188.08-.403.108-.618H.405c.027.215.08.403.107.617"/>
  <path fill="#F36437" d="M.862 30.415h46.255c.053-.188.107-.403.16-.617H.728c.027.214.081.402.135.617"/>
  <path fill="#F36437" d="M1.365 32.005h45.262c.08-.188.134-.403.215-.618H1.178c.053.215.134.43.187.618"/>
  <path fill="#F36437" d="M2.064 33.767h43.839c.08-.188.188-.403.269-.59H1.822c.081.187.162.402.242.59"/>
  <path fill="#F36437" d="M3.09 35.759h41.825c.108-.188.215-.403.322-.618H2.767c.108.215.215.43.323.617"/>
  <path fill="#F36437" d="M4.54 38.042h38.926c.134-.188.295-.403.43-.59H4.11c.161.187.295.402.43.59"/>
  <path fill="#F36437" d="M6.766 40.709h34.47c.188-.188.376-.403.564-.618H6.203c.187.215.375.43.563.618"/>
  <path fill="#F36437" d="M10.549 43.892h26.899c.295-.188.563-.403.859-.59H9.717c.268.187.536.375.832.59"/>
  <path fill="#F36437" d="M21.393 47.856h5.208a27 27 0 0 0 3.356-.59h-11.92c1.101.268 2.202.455 3.356.59"/>
</svg>
