<svg preserveAspectRatio="xMidYMid meet" data-bbox="0 0 173.882 47.856" xmlns="http://www.w3.org/2000/svg" viewBox="0 0 173.882 47.856" height="48" width="174" data-type="color" role="presentation" aria-hidden="true" aria-label=""><defs><style>#comp-mjlbctz0_r_comp-mki7mz02 svg [data-color="1"] {fill: #F1EDDE;}
#comp-mjlbctz0_r_comp-mki7mz02 svg [data-color="2"] {fill: #F36437;}</style></defs>
    <g>
        <path fill="#F1EDDE" d="M79.193 6.099V19.93h-1.001v-6.58h-9.19v6.58H68V6.099h1.002v6.362h9.19V6.1zm10.624 13.93q-2.023 0-3.653-.918a6.74 6.74 0 0 1-2.562-2.52q-.933-1.6-.933-3.576 0-1.977.933-3.577a6.74 6.74 0 0 1 2.562-2.52Q87.794 6 89.817 6t3.652.909a6.67 6.67 0 0 1 2.563 2.51q.932 1.6.932 3.596t-.932 3.596a6.67 6.67 0 0 1-2.563 2.51q-1.63.909-3.652.909m0-.928q1.728 0 3.122-.79a5.8 5.8 0 0 0 2.2-2.184q.804-1.393.804-3.112t-.805-3.112a5.8 5.8 0 0 0-2.2-2.184q-1.393-.79-3.121-.79t-3.132.79a5.8 5.8 0 0 0-2.21 2.184q-.805 1.393-.805 3.112t.805 3.112a5.8 5.8 0 0 0 2.21 2.183q1.404.79 3.132.79m20.167.83-3.28-4.624a10 10 0 0 1-1.335.099h-3.927v4.525h-1.002V6.099h4.929q2.592 0 4.065 1.235t1.473 3.428q0 1.64-.835 2.757-.835 1.116-2.386 1.57l3.437 4.842zm-4.615-5.414q2.199 0 3.358-.979 1.158-.978 1.158-2.776t-1.158-2.776q-1.16-.978-3.358-.978h-3.927v7.509zm9.21-8.418h1.001V19.93h-1.001zm15.395 12.923v.909h-11.075v-.712l9.484-12.211h-9.366v-.91h10.741v.712l-9.465 12.212zm8.738 1.008q-2.023 0-3.652-.92a6.75 6.75 0 0 1-2.563-2.519q-.932-1.6-.932-3.576 0-1.977.932-3.577a6.75 6.75 0 0 1 2.563-2.52Q136.69 6 138.712 6t3.653.909a6.67 6.67 0 0 1 2.563 2.51q.932 1.6.932 3.596t-.932 3.596a6.67 6.67 0 0 1-2.563 2.51q-1.63.909-3.653.909m0-.93q1.728 0 3.123-.79a5.8 5.8 0 0 0 2.199-2.183q.805-1.393.805-3.112t-.805-3.112a5.8 5.8 0 0 0-2.199-2.184q-1.395-.79-3.123-.79t-3.132.79a5.8 5.8 0 0 0-2.209 2.184q-.805 1.393-.805 3.112t.805 3.112a5.8 5.8 0 0 0 2.209 2.183q1.404.79 3.132.79m21.817-13v13.83h-.825l-9.367-12.014V19.93h-1.001V6.099h.844l9.348 12.014V6.099zm8.405 13.93a8 8 0 0 1-2.877-.523q-1.365-.524-2.131-1.354l.452-.75q.726.77 1.954 1.254a7 7 0 0 0 2.582.484q1.963 0 2.965-.75 1.002-.751 1.002-1.957 0-.928-.531-1.482a3.5 3.5 0 0 0-1.315-.85q-.786-.295-2.121-.612-1.512-.375-2.425-.731a3.9 3.9 0 0 1-1.552-1.097q-.638-.741-.638-1.986 0-1.007.531-1.847.53-.84 1.62-1.334T169.169 6q1.14 0 2.239.336 1.1.336 1.905.909l-.373.81a6.4 6.4 0 0 0-1.817-.87 6.8 6.8 0 0 0-1.954-.296q-1.905 0-2.886.77-.982.772-.982 1.997 0 .928.53 1.482t1.316.85q.785.296 2.14.632 1.512.376 2.415.73a4 4 0 0 1 1.542 1.078q.638.721.638 1.946 0 1.008-.54 1.838t-1.659 1.323-2.749.494" data-color="1"></path>
        <path fill="#F1EDDE" d="m155.691 34.765-4.158-6.542h-1.098l5.174 8.209v5.316h1.016v-5.316l.025-.04 5.149-8.169h-1.098l-4.207 6.618h-.754z" data-color="1"></path>
        <path fill="#F1EDDE" d="m143.195 28.223-5.082 13.525h1.053l1.654-4.483h6.951l1.654 4.483h1.093l-5.102-13.525zm-2.068 8.21 2.655-7.184h1.028l2.655 7.184z" data-color="1"></path>
        <path fill="#F1EDDE" d="M129.943 33.192h-1.705l-2.987 7.53h-.654l-1.664-12.499h-.994l1.8 13.525h2.053l2.988-7.588h.622l2.967 7.588h2.053l1.8-13.525h-.974l-1.664 12.499h-.653z" data-color="1"></path>
        <path fill="#F1EDDE" d="m112.869 28.223-5.083 13.525h1.054l1.654-4.483h6.95l1.654 4.483h1.094l-5.103-13.525zm-2.069 8.21 2.655-7.184h1.028l.04.109 2.615 7.075z" data-color="1"></path>
        <path fill="#F1EDDE" d="M101.245 41.748h1.016V29.017h4.901v-.794H96.324v.794h4.921z" data-color="1"></path>
        <path fill="#F1EDDE" d="M85.25 35.11h6.963v-.831H85.25v-5.224h8.557v-.832h-9.572v13.525h9.92v-.832H85.25z" data-color="1"></path>
        <path fill="#F1EDDE" d="M79.273 36.383c0 1.407-.414 2.568-1.229 3.45-.804.886-2 1.335-3.553 1.335-.932 0-1.774-.175-2.501-.52-.718-.349-1.295-.823-1.718-1.413a6.4 6.4 0 0 1-.944-1.952 8.3 8.3 0 0 1-.313-2.298c0-1.103.183-2.116.543-3.012.365-.906.982-1.669 1.836-2.267.855-.6 1.91-.903 3.138-.903 1.11 0 2.028.224 2.733.665.68.427 1.174 1.065 1.47 1.897h1.074a4.33 4.33 0 0 0-1.756-2.434c-.921-.637-2.106-.96-3.521-.96-2.037 0-3.65.66-4.797 1.962C68.584 31.24 68 32.94 68 34.985c0 2.02.577 3.713 1.716 5.035 1.133 1.314 2.74 1.98 4.775 1.98.822 0 1.573-.108 2.235-.322.657-.224 1.21-.521 1.64-.882a4.8 4.8 0 0 0 1.106-1.332 5.8 5.8 0 0 0 .657-1.625c.132-.58.2-1.2.2-1.844V34.9H74.33v.831h4.942z" data-color="1"></path>
        <path fill="#F1EDDE" d="M168.949 41.982a7.9 7.9 0 0 1-2.869-.523q-1.36-.522-2.124-1.35l.45-.749q.724.77 1.948 1.252a7 7 0 0 0 2.575.483q1.958 0 2.956-.75.999-.749.999-1.95 0-.926-.529-1.479a3.5 3.5 0 0 0-1.312-.847q-.782-.295-2.114-.61-1.507-.376-2.418-.73a3.86 3.86 0 0 1-1.547-1.094q-.636-.74-.636-1.98 0-1.006.528-1.844.529-.837 1.616-1.33 1.086-.493 2.711-.493 1.136 0 2.232.335t1.899.907l-.372.808a6.3 6.3 0 0 0-1.811-.868 6.8 6.8 0 0 0-1.948-.295q-1.899 0-2.878.768-.978.769-.978 1.991 0 .927.528 1.478.53.552 1.312.848.783.295 2.134.63 1.508.375 2.408.73a3.96 3.96 0 0 1 1.537 1.074q.636.72.636 1.941a3.3 3.3 0 0 1-.538 1.833q-.538.828-1.654 1.32-1.116.494-2.741.493" data-color="1"></path>
        <g clip-path="url(#8ebcee7e-6cef-494a-b10f-9a81014471fc_comp-mjlbctz0_r_comp-mki7mz02)">
            <path fill="#F36437" d="M47.976 24.641H.03c0 .215 0 .403.027.618h47.92z" data-color="2"></path>
            <path fill="#F36437" d="M47.918 25.8H.078c.028.215.028.403.054.617h47.759c0-.214.027-.429.027-.617" data-color="2"></path>
            <path fill="#F36437" d="M.268 27.628h47.436c.027-.188.054-.402.08-.59H.189c.026.188.053.402.08.59" data-color="2"></path>
            <path fill="#F36437" d="M.512 28.968h46.953c.054-.188.08-.403.108-.618H.405c.027.215.08.403.107.617" data-color="2"></path>
            <path fill="#F36437" d="M.862 30.415h46.255c.053-.188.107-.403.16-.617H.728c.027.214.081.402.135.617" data-color="2"></path>
            <path fill="#F36437" d="M1.365 32.005h45.262c.08-.188.134-.403.215-.618H1.178c.053.215.134.43.187.618" data-color="2"></path>
            <path fill="#F36437" d="M2.064 33.767h43.839c.08-.188.188-.403.269-.59H1.822c.081.187.162.402.242.59" data-color="2"></path>
            <path fill="#F36437" d="M3.09 35.759h41.825c.108-.188.215-.403.322-.618H2.767c.108.215.215.43.323.617" data-color="2"></path>
            <path fill="#F36437" d="M4.54 38.042h38.926c.134-.188.295-.403.43-.59H4.11c.161.187.295.402.43.59" data-color="2"></path>
            <path fill="#F36437" d="M6.766 40.709h34.47c.188-.188.376-.403.564-.618H6.203c.187.215.375.43.563.618" data-color="2"></path>
            <path fill="#F36437" d="M10.549 43.892h26.899c.295-.188.563-.403.859-.59H9.717c.268.187.536.375.832.59" data-color="2"></path>
            <path fill="#F36437" d="M21.393 47.856h5.208a27 27 0 0 0 3.356-.59h-11.92c1.101.268 2.202.455 3.356.59" data-color="2"></path>
            <path fill="#F36437" d="M24 0C10.738 0 0 10.738 0 24h48C48 10.765 37.262 0 24 0" clip-rule="evenodd" fill-rule="evenodd" data-color="2"></path>
        </g>
        <defs fill="none">
            <clipPath id="8ebcee7e-6cef-494a-b10f-9a81014471fc_comp-mjlbctz0_r_comp-mki7mz02">
                <path fill="#ffffff" d="M48 0v48H0V0z"></path>
            </clipPath>
        </defs>
    </g>
</svg>