<?xml version="1.0" encoding="UTF-8" standalone="no"?>
<!DOCTYPE svg PUBLIC "-//W3C//DTD SVG 1.1//EN" "http://www.w3.org/Graphics/SVG/1.1/DTD/svg11.dtd">
<svg width="100%" height="100%" viewBox="0 0 842 304" version="1.1" xmlns="http://www.w3.org/2000/svg" xmlns:xlink="http://www.w3.org/1999/xlink" xml:space="preserve" xmlns:serif="http://www.serif.com/" style="fill-rule:evenodd;clip-rule:evenodd;stroke-linejoin:round;stroke-miterlimit:2;">
    <g transform="matrix(1.0697,0,0,1.05304,-19.4053,-7.15721)">
        <path d="M231.75,230.901C232.174,230.901 232.576,231.16 232.953,231.68C233.378,232.199 233.708,232.836 233.944,233.591C234.18,234.299 234.298,234.937 234.298,235.503C234.346,236.069 234.157,236.376 233.732,236.423C223.395,236.659 212.562,237.792 201.234,239.822C200.81,242.795 199.512,245.58 197.34,248.176C195.216,250.725 192.927,252.92 190.473,254.761C184.761,259.103 177.563,263.139 168.878,266.868C160.194,270.644 152.311,272.626 145.231,272.815C141.125,272.296 138.646,270.833 137.797,268.425C136.947,266.018 137.986,263.304 140.912,260.283C145.774,255.894 151.32,252.259 157.55,249.38C163.828,246.453 170.058,243.952 176.242,241.875C182.236,239.845 188.325,238.099 194.508,236.636C193.753,235.361 192.667,234.229 191.251,233.237C189.883,232.199 188.537,231.302 187.216,230.547C186.838,230.358 186.484,230.146 186.154,229.91C183.227,228.352 180.277,226.842 177.304,225.378C173.622,223.632 170.011,221.768 166.471,219.785C162.931,217.803 159.627,215.466 156.559,212.776C151.037,207.537 148.087,202.533 147.709,197.766C147.379,192.952 148.842,188.42 152.099,184.172C155.403,179.877 159.722,175.865 165.055,172.136C169.398,169.021 174.802,165.906 181.269,162.791C187.782,159.675 194.438,157.292 201.234,155.64C208.031,153.988 214.097,153.822 219.43,155.144C223.348,156.654 225.779,159.038 226.723,162.295C227.714,165.505 227.714,168.95 226.723,172.632C225.731,176.266 224.245,179.5 222.262,182.332C221.082,184.172 219.69,185.824 218.085,187.288C216.905,188.184 215.843,188.373 214.899,187.854C213.955,187.288 213.412,186.485 213.271,185.447C213.129,184.361 213.648,183.417 214.828,182.615C220.492,179.122 224.103,175.535 225.661,171.853C227.265,168.124 226.982,165.033 224.811,162.578C222.687,160.076 218.817,158.873 213.2,158.967C205.364,159.439 197.506,161.375 189.623,164.773C181.741,168.124 174.613,172.065 168.241,176.597C165.881,178.296 163.356,180.42 160.666,182.969C157.975,185.518 155.922,188.302 154.506,191.323C153.137,194.297 153.161,197.341 154.577,200.457C156.701,204.657 159.745,208.103 163.71,210.793C167.675,213.484 171.805,215.844 176.1,217.874C177.091,218.393 178.059,218.888 179.003,219.36C180.419,220.116 181.859,220.847 183.322,221.555C186.201,222.877 188.986,224.364 191.676,226.016C194.414,227.668 196.845,229.721 198.969,232.175C199.724,233.214 200.29,234.229 200.668,235.22C210.91,233.096 221.271,231.656 231.75,230.901ZM140.558,270.266C142.116,271.729 145.396,271.918 150.399,270.833C155.45,269.747 161.067,267.717 167.25,264.744C173.48,261.817 179.168,258.301 184.313,254.194C189.458,250.041 192.951,245.675 194.792,241.096C186.154,242.89 177.799,245.321 169.728,248.389C161.657,251.41 154.293,255.115 147.638,259.504C146.883,260.024 145.797,260.92 144.381,262.195C142.918,263.516 141.715,264.932 140.771,266.443C139.826,267.953 139.756,269.228 140.558,270.266ZM306.798,232.317C307.082,232.931 307.082,233.521 306.798,234.087C306.515,234.653 306.067,235.031 305.453,235.22C304.084,235.55 302.739,235.904 301.417,236.282C298.208,237.131 294.975,237.934 291.718,238.689C291.482,238.736 291.246,238.783 291.01,238.831C287.942,239.586 284.826,240.199 281.664,240.671C278.549,241.143 275.41,241.238 272.248,240.955C267.622,240.294 264.695,238.477 263.468,235.503C262.288,232.529 262.076,228.966 262.831,224.812C262.831,224.765 262.831,224.765 262.831,224.812C262.076,225.284 261.368,225.827 260.707,226.44L260.707,226.511C260.896,226.747 261.085,227.007 261.273,227.29C261.698,227.998 261.84,228.753 261.698,229.556C261.604,230.358 261.226,231.042 260.565,231.609C259.81,232.081 259.031,232.27 258.229,232.175C257.427,232.034 256.742,231.609 256.176,230.901C256.176,230.854 256.176,230.854 256.176,230.901C254.477,232.647 252.801,234.441 251.149,236.282C248.364,239.303 245.485,242.3 242.511,245.273C242.228,245.462 241.968,245.698 241.732,245.981C240.316,247.35 238.688,248.601 236.847,249.734C235.006,250.867 233.142,250.961 231.254,250.017C231.112,249.923 230.971,249.828 230.829,249.734C229.319,248.507 228.398,246.996 228.068,245.203C227.69,243.362 227.714,241.568 228.139,239.822C229.649,233.544 232.859,228.281 237.768,224.033C240.647,221.532 243.809,220.045 247.255,219.573C250.701,219.101 253.981,220.116 257.096,222.617L257.167,222.617C258.441,221.484 259.881,220.493 261.486,219.644C262.335,219.172 263.279,218.936 264.318,218.936C265.356,218.936 266.253,219.313 267.008,220.068C267.669,220.871 267.976,221.744 267.929,222.688C267.929,223.585 267.811,224.458 267.575,225.308C267.575,225.449 267.551,225.567 267.504,225.662C267.41,226.086 267.315,226.558 267.221,227.078C266.654,229.06 266.3,231.137 266.159,233.308C266.017,235.479 266.654,237.226 268.07,238.547C270.525,240.105 273.734,240.506 277.699,239.751C281.664,238.996 285.322,238.052 288.673,236.919C289.523,236.636 290.302,236.376 291.01,236.14C295.447,234.819 299.789,233.19 304.037,231.255C304.604,231.019 305.146,230.995 305.666,231.184C306.185,231.373 306.562,231.75 306.798,232.317ZM246.264,233.167L246.264,233.096C248.293,231.066 250.347,229.013 252.423,226.936C249.875,225.662 247.16,226.204 244.281,228.564C241.402,230.924 238.948,233.757 236.918,237.061C234.936,240.317 234.015,242.725 234.157,244.282C235.667,243.338 237.083,242.205 238.405,240.884C240.859,238.618 243.314,236.211 245.768,233.662C245.91,233.521 246.075,233.355 246.264,233.167ZM374.838,232.175C375.121,232.6 375.215,233.072 375.121,233.591C375.027,234.063 374.743,234.441 374.271,234.724C370.071,237.273 365.775,239.633 361.386,241.804C358.743,243.126 355.84,244.306 352.677,245.344C349.562,246.335 346.47,246.737 343.402,246.548C340.382,246.312 337.667,245.014 335.26,242.654C333.844,241.143 332.688,239.491 331.791,237.698C330.894,235.857 330.115,234.016 329.455,232.175C329.407,232.081 329.36,231.986 329.313,231.892C329.219,231.562 329.101,231.255 328.959,230.972C328.581,229.839 328.086,228.777 327.472,227.786C327.425,227.738 327.354,227.715 327.26,227.715C327.213,227.668 327.142,227.668 327.047,227.715C325.301,228.753 323.696,230.051 322.233,231.609C321.997,231.845 321.761,232.081 321.525,232.317C318.268,235.715 315.153,239.279 312.179,243.008C310.338,245.226 308.545,247.468 306.798,249.734C306.279,250.395 305.642,250.772 304.887,250.867C304.132,250.961 303.424,250.749 302.763,250.229C302.007,249.616 301.653,248.813 301.701,247.822C302.314,238.854 303.99,230.075 306.728,221.484C307.247,220.304 307.978,219.667 308.922,219.573C309.914,219.431 310.763,219.714 311.471,220.422C312.179,221.083 312.392,222.027 312.108,223.254C310.598,227.88 309.442,232.6 308.639,237.415C308.639,237.509 308.663,237.58 308.71,237.627C308.757,237.674 308.828,237.698 308.922,237.698C309.017,237.698 309.088,237.674 309.135,237.627C311.825,234.417 314.681,231.349 317.702,228.423C317.89,228.234 318.079,228.069 318.268,227.927C319.59,226.606 321.171,225.308 323.012,224.033C324.853,222.759 326.693,222.263 328.534,222.546C329.62,222.83 330.493,223.49 331.154,224.529C331.862,225.567 332.381,226.558 332.711,227.502C333.136,228.682 333.561,229.886 333.986,231.113C334.93,234.37 336.204,237.462 337.809,240.388C340.075,243.928 342.978,245.58 346.518,245.344C350.058,245.108 353.574,243.999 357.067,242.017C360.607,239.987 363.51,238.123 365.775,236.423C366.531,235.904 367.144,235.479 367.616,235.149C369.221,234.063 370.802,232.954 372.36,231.821C372.737,231.538 373.162,231.42 373.634,231.467C374.106,231.514 374.507,231.75 374.838,232.175ZM434.877,159.888C435.302,160.737 435.396,161.894 435.16,163.357C434.924,164.773 434.594,166.118 434.169,167.393C434.027,167.865 433.909,168.266 433.815,168.596C431.455,177.659 427.773,188.727 422.77,201.802C419.608,210.251 416.54,218.865 413.566,227.644C410.592,236.423 408.232,244.825 406.486,252.849C404.739,260.873 404.102,267.953 404.574,274.089C405.046,280.273 407.17,284.969 410.946,288.179C411.465,288.698 411.725,289.288 411.725,289.949C411.772,290.657 411.56,291.294 411.088,291.86C410.474,292.521 409.719,292.781 408.822,292.639C407.973,292.545 407.312,292.096 406.84,291.294C405.188,288.273 404.173,284.993 403.795,281.453C403.418,277.913 403.276,274.443 403.371,271.045C403.607,259.528 405.282,248.223 408.397,237.131C412.362,223.066 416.634,209.094 421.212,195.217C422.015,192.621 422.841,190.025 423.69,187.429C425.909,180.821 427.986,174.189 429.921,167.534C429.968,167.298 429.944,167.157 429.85,167.109C429.803,167.015 429.708,166.991 429.567,167.039C429.472,167.086 429.378,167.157 429.284,167.251C428.67,168.289 428.056,169.351 427.443,170.437C422.204,180.066 417.177,189.836 412.362,199.749C408.492,207.678 404.48,215.561 400.326,223.396C401.789,224.812 403.064,226.346 404.149,227.998C404.763,229.225 404.787,230.311 404.22,231.255C403.654,232.152 402.828,232.671 401.742,232.812C400.704,232.954 399.76,232.506 398.91,231.467C398.344,230.618 397.777,229.839 397.211,229.131C397.117,229.367 396.999,229.579 396.857,229.768C396.668,230.146 396.456,230.523 396.22,230.901C392.349,238.17 387.936,245.132 382.98,251.787C381.375,253.864 379.416,255.894 377.104,257.876C374.838,259.811 372.289,260.543 369.457,260.071C369.268,260.024 369.079,259.953 368.891,259.858C366.342,258.584 365.02,256.436 364.926,253.416C364.831,250.395 365.351,247.279 366.483,244.07C367.616,240.86 368.702,238.288 369.74,236.353C372.1,231.632 375.239,227.455 379.157,223.821C382.083,221.036 385.6,219.431 389.706,219.006C391.83,218.865 393.812,219.219 395.653,220.068C400.137,211.903 404.527,203.666 408.822,195.359C412.079,189.128 415.383,182.922 418.734,176.738C421.047,172.396 423.525,168.148 426.168,163.994C426.263,163.9 426.334,163.805 426.381,163.711C427.23,162.342 428.292,161.044 429.567,159.817C429.567,159.77 429.59,159.722 429.638,159.675C430.062,159.298 430.582,158.967 431.195,158.684C431.856,158.401 432.541,158.377 433.249,158.613C433.957,158.802 434.499,159.227 434.877,159.888ZM371.085,254.053L371.156,254.053L371.085,254.053ZM371.369,253.982C373.257,253.321 375.404,251.48 377.812,248.459C380.266,245.391 382.626,242.064 384.892,238.477C387.157,234.842 388.974,231.821 390.343,229.414C390.674,228.895 390.957,228.446 391.193,228.069C391.618,227.266 392.066,226.464 392.538,225.662C390.32,225.001 387.889,225.803 385.246,228.069C382.602,230.334 380.101,233.261 377.741,236.848C375.428,240.388 373.634,243.787 372.36,247.043C371.133,250.3 370.802,252.613 371.369,253.982ZM502.35,231.042C502.917,231.42 503.271,231.916 503.412,232.529C503.554,233.143 503.436,233.733 503.058,234.299C502.539,234.96 501.949,235.527 501.288,235.999C501.241,236.046 501.17,236.117 501.076,236.211C497.441,238.901 493.571,241.214 489.464,243.149C484.98,245.462 480.331,247.421 475.517,249.026C473.865,249.592 472.165,249.97 470.419,250.159C468.72,250.3 467.068,250.041 465.463,249.38C463.622,248.483 462.395,247.114 461.781,245.273C461.168,243.433 460.766,241.521 460.578,239.539C460.389,237.934 460.106,236.518 459.728,235.291C459.398,234.063 458.713,233.285 457.675,232.954C456.164,232.907 454.512,233.827 452.719,235.715C450.925,237.603 449.179,239.822 447.479,242.371C445.827,244.919 444.411,247.185 443.231,249.167C442.712,250.064 442.287,250.796 441.957,251.362L437.213,259.363L437.213,259.504C436.741,260.212 436.104,260.637 435.302,260.779C434.499,260.92 433.744,260.755 433.036,260.283C431.101,258.631 430.11,255.752 430.062,251.646C430.015,247.492 430.417,243.102 431.266,238.477C432.116,233.851 432.918,230.028 433.673,227.007C433.862,226.299 434.004,225.685 434.098,225.166C433.154,225.308 432.187,225.284 431.195,225.095C430.393,224.906 429.803,224.505 429.425,223.892C429,223.231 428.859,222.499 429,221.697C429.189,220.942 429.614,220.352 430.275,219.927C430.889,219.502 431.573,219.36 432.328,219.502C432.942,219.691 433.532,219.691 434.098,219.502C434.665,219.266 435.231,218.959 435.797,218.582C436.364,216.269 437.426,212.563 438.983,207.466C440.588,202.368 442.5,196.728 444.718,190.544C446.984,184.314 449.462,178.39 452.152,172.773C454.843,167.109 457.58,162.578 460.365,159.18C463.15,155.734 465.864,154.247 468.507,154.719C468.602,154.766 468.696,154.79 468.791,154.79C470.395,155.498 471.198,156.772 471.198,158.613C471.198,160.454 470.985,162.153 470.561,163.711C470.513,163.947 470.466,164.183 470.419,164.419C468.861,170.272 466.903,175.983 464.542,181.553C462.23,187.122 459.681,192.598 456.896,197.979C453.309,205.247 448.943,212.068 443.798,218.44C442.523,219.903 441.084,221.272 439.479,222.546C438.393,227.219 437.426,231.939 436.576,236.707C435.774,241.427 435.396,246.147 435.443,250.867C435.679,250.489 435.915,250.088 436.151,249.663C437.567,247.209 439.29,244.447 441.32,241.379C443.349,238.264 445.544,235.456 447.904,232.954C450.312,230.452 452.766,228.895 455.268,228.281C457.392,227.856 459.209,228.187 460.719,229.272C462.23,230.358 463.221,231.939 463.693,234.016C463.976,235.527 464.094,237.367 464.047,239.539C464,241.191 464.047,242.772 464.188,244.282C464.33,245.793 464.731,246.996 465.392,247.893C466.667,249.073 469.286,249.026 473.251,247.751C477.216,246.43 482.148,244.023 488.048,240.53C491.258,238.736 494.208,236.636 496.898,234.229C497.795,233.426 498.527,232.6 499.093,231.75C499.471,231.184 499.966,230.83 500.58,230.688C501.194,230.547 501.784,230.665 502.35,231.042ZM445.497,200.952C444.27,204.823 443.113,208.693 442.028,212.563C446.181,207.324 449.816,201.755 452.931,195.854C456.707,188.963 460.035,181.86 462.914,174.543C464.33,170.909 465.534,167.227 466.525,163.499L466.525,163.357C466.95,161.799 467.162,160.218 467.162,158.613C465.557,159.227 464.023,160.549 462.56,162.578C461.144,164.608 459.988,166.449 459.091,168.101C459.044,168.195 458.996,168.289 458.949,168.384C453.474,178.815 448.99,189.671 445.497,200.952ZM436.435,255.752L436.505,255.752L436.435,255.752ZM557.787,232.034C558.07,232.6 558.094,233.167 557.858,233.733C557.669,234.299 557.292,234.724 556.725,235.007C544.642,239.822 532.322,243.952 519.767,247.397C519.059,247.586 518.304,247.775 517.501,247.964C514.953,248.625 512.357,249.12 509.713,249.451C507.117,249.734 504.828,249.38 502.846,248.389C500.91,247.35 499.636,245.203 499.022,241.946C498.598,237.415 499.211,233.049 500.863,228.848C501.005,228.47 501.17,228.022 501.359,227.502C501.831,226.086 502.468,224.836 503.271,223.75C504.073,222.617 505.229,222.334 506.74,222.9C507.495,223.278 507.967,223.868 508.156,224.67C508.392,225.426 508.297,226.157 507.873,226.865C506.457,229.461 505.418,232.812 504.757,236.919C504.097,240.978 504.498,244.377 505.961,247.114C507.283,248.247 509.572,248.507 512.829,247.893C516.133,247.232 519.673,246.194 523.449,244.778C527.272,243.362 530.623,242.04 533.502,240.813C535.202,240.105 536.547,239.562 537.538,239.185C540.512,238.099 543.462,236.895 546.388,235.574C549.315,234.252 552.17,232.812 554.955,231.255C555.474,231.019 555.993,230.972 556.513,231.113C557.079,231.255 557.504,231.562 557.787,232.034ZM507.165,216.033C505.985,215.844 505.182,214.947 504.757,213.342C504.38,211.737 504.38,210.133 504.757,208.528C505.182,206.923 505.985,206.05 507.165,205.908C508.392,206.05 509.194,206.923 509.572,208.528C509.997,210.133 509.997,211.737 509.572,213.342C509.194,214.947 508.392,215.844 507.165,216.033ZM647.704,141.833C648.979,143.014 649.451,144.76 649.12,147.073C648.79,149.338 648.341,151.392 647.775,153.232C647.681,153.61 647.586,153.94 647.492,154.224C645.132,161.493 642.488,168.643 639.562,175.676C638.807,177.564 638.052,179.476 637.296,181.411C632.482,193.164 628.069,205.082 624.057,217.166C623.868,217.638 623.703,218.157 623.561,218.723C622.145,223.018 620.399,228.612 618.322,235.503C616.245,242.394 614.381,249.521 612.729,256.885C611.076,264.201 610.156,270.715 609.967,276.426C609.826,282.137 610.911,285.984 613.224,287.966C613.743,288.391 614.239,288.604 614.711,288.604C615.797,288.651 616.528,289.028 616.906,289.736C617.331,290.492 617.378,291.247 617.047,292.002C616.764,292.804 616.08,293.276 614.994,293.418C614.522,293.465 614.097,293.371 613.72,293.135C613.342,292.899 612.988,292.616 612.658,292.285C611.808,291.436 611.171,290.586 610.746,289.736C608.858,284.922 608.103,279.163 608.48,272.461C608.858,265.758 609.472,259.693 610.321,254.265C610.368,253.888 610.416,253.534 610.463,253.203C612.021,243.669 614.074,234.252 616.623,224.954C619.171,215.655 621.98,206.427 625.048,197.271C627.408,190.474 629.862,183.724 632.411,177.021C634.346,171.782 636.258,166.519 638.146,161.233C639.42,157.693 640.53,154.129 641.474,150.542C636.801,157.905 630.901,168.289 623.773,181.694C618.109,192.362 612.115,203.218 605.79,214.263C599.465,225.26 593.211,234.913 587.028,243.22C580.845,251.48 575.133,256.814 569.894,259.221C566.354,260.543 563.31,260.378 560.761,258.726C558.259,257.026 556.418,254.501 555.238,251.15C553.869,246.194 553.563,241.191 554.318,236.14C553.468,235.621 552.996,234.866 552.902,233.875C552.807,232.883 553.161,232.057 553.964,231.396C554.389,231.113 554.813,230.759 555.238,230.334C556.985,222.169 559.486,214.239 562.743,206.545C566,198.805 569.658,191.3 573.717,184.031C573.953,183.7 574.213,183.299 574.496,182.827C575.912,180.278 577.847,177.092 580.302,173.269C582.756,169.446 585.352,166.071 588.09,163.145C590.875,160.218 593.447,158.849 595.807,159.038C595.996,159.085 596.161,159.109 596.303,159.109L596.515,159.18C597.884,159.793 598.686,160.785 598.922,162.153C599.158,163.522 599.064,164.985 598.639,166.543C598.262,168.101 597.837,169.493 597.365,170.72C597.27,171.003 597.2,171.263 597.152,171.499C595.831,174.945 594.368,178.272 592.763,181.482C584.833,197.577 575.582,212.894 565.009,227.432C563.357,229.697 561.54,231.868 559.557,233.945C559.557,234.087 559.534,234.229 559.486,234.37C559.109,236.305 558.731,238.713 558.354,241.592C558.023,244.471 558,247.35 558.283,250.229C558.613,253.062 559.557,255.422 561.115,257.31C563.144,259.434 565.386,260.047 567.841,259.15C570.295,258.254 572.797,256.484 575.346,253.84C577.895,251.197 580.255,248.318 582.426,245.203C584.644,242.087 586.509,239.35 588.019,236.99C588.821,235.715 589.482,234.724 590.001,234.016C595.996,225.237 601.613,216.222 606.852,206.97C612.091,197.719 617.165,188.397 622.074,179.004C623.065,177.021 624.363,174.496 625.968,171.428C627.903,167.605 629.886,163.758 631.916,159.888C633.945,156.017 635.597,152.926 636.872,150.613C636.966,150.518 637.037,150.4 637.084,150.259C637.698,149.173 638.571,147.781 639.704,146.082C640.836,144.335 642.111,142.966 643.527,141.975C644.943,140.937 646.335,140.889 647.704,141.833ZM564.867,214.971C564.112,217.236 563.38,219.478 562.672,221.697C570.46,211.218 577.541,200.268 583.913,188.845C587.453,182.756 590.521,176.479 593.117,170.012C593.211,169.871 593.282,169.729 593.329,169.587C594.226,167.463 594.745,165.339 594.887,163.215L594.816,163.215C593.164,164.018 591.488,165.41 589.789,167.393C588.137,169.328 586.768,171.074 585.683,172.632C580.727,179.901 576.431,187.524 572.797,195.5C569.87,201.873 567.227,208.363 564.867,214.971ZM699.53,232.671C699.625,233.19 699.53,233.686 699.247,234.158C698.964,234.583 698.539,234.866 697.973,235.007L697.831,235.007C697.406,235.055 696.981,235.055 696.557,235.007C696.085,235.007 695.613,235.031 695.141,235.078C692.781,235.173 690.421,235.432 688.061,235.857C681.783,237.084 675.647,238.878 669.652,241.238C664.838,243.031 660.141,245.132 655.563,247.539C655.421,247.633 655.327,247.751 655.28,247.893C655.233,248.035 655.233,248.176 655.28,248.318C656.082,250.819 655.705,253.014 654.147,254.902C652.589,256.79 650.678,258.183 648.412,259.08C647.09,259.646 645.698,259.929 644.235,259.929L644.164,259.929C643.881,259.929 643.527,259.835 643.102,259.646C643.055,259.646 643.031,259.622 643.031,259.575C640.718,257.876 640.459,255.988 642.252,253.911C644.046,251.834 646.618,249.899 649.97,248.105C650.111,247.964 650.206,247.822 650.253,247.681C650.3,247.492 650.253,247.303 650.111,247.114C648.79,245.368 647.444,243.621 646.076,241.875C644.565,240.034 643.078,238.123 641.615,236.14C641.615,236.14 641.592,236.117 641.544,236.069C640.459,234.653 639.468,233.167 638.571,231.609C637.674,230.004 637.108,228.281 636.872,226.44C636.636,224.222 637.108,222.192 638.288,220.352C639.468,218.511 640.954,217.071 642.748,216.033C644.919,214.711 647.421,213.838 650.253,213.413C653.085,212.941 655.681,213.224 658.041,214.263C660.448,215.537 661.416,217.142 660.944,219.077C660.472,220.965 659.197,222.924 657.121,224.954C655.091,226.983 652.92,228.8 650.607,230.405C648.294,231.963 646.524,233.025 645.297,233.591C646.477,235.338 647.728,237.108 649.049,238.901C650.607,241.073 652.141,243.267 653.651,245.486C653.746,245.627 653.864,245.722 654.005,245.769C654.147,245.816 654.289,245.793 654.43,245.698C656.554,244.707 658.206,243.928 659.386,243.362C659.622,243.267 659.835,243.197 660.023,243.149C668.944,239.279 678.101,236.022 687.494,233.379C690.609,232.482 693.819,231.703 697.123,231.042C697.689,230.948 698.185,231.066 698.61,231.396C699.082,231.68 699.389,232.104 699.53,232.671ZM658.82,215.537C658.773,215.49 658.725,215.443 658.678,215.396C657.404,214.404 655.256,214.333 652.235,215.183C649.262,216.033 646.666,217.661 644.447,220.068C642.276,222.476 641.733,225.496 642.819,229.131C642.913,229.32 643.102,229.461 643.385,229.556C643.668,229.65 643.999,229.603 644.376,229.414C645.887,228.564 647.893,227.266 650.395,225.52C652.896,223.774 655.044,221.98 656.837,220.139C658.678,218.251 659.339,216.717 658.82,215.537ZM642.677,258.018C643.291,258.584 644.353,258.513 645.863,257.805C647.374,257.05 648.766,255.988 650.041,254.619C651.362,253.203 652.047,251.858 652.094,250.583C652.094,250.3 651.976,250.111 651.74,250.017C651.551,249.923 651.339,249.923 651.103,250.017C650.017,250.631 648.743,251.433 647.279,252.424C645.816,253.416 644.589,254.43 643.598,255.469C642.606,256.46 642.3,257.31 642.677,258.018Z" style="fill:rgb(175,82,42);fill-rule:nonzero;"/>
    </g>
    <path d="M101.13,25.09L109.138,25.09L109.138,135L101.13,135L101.13,25.09ZM27.647,135L19.64,135L19.64,25.09L27.647,25.09L27.647,135ZM102.072,82.714L26.705,82.714L26.705,75.649L102.072,75.649L102.072,82.714ZM189.443,135.785C181.278,135.785 173.689,134.424 166.676,131.703C159.767,128.876 153.696,124.951 148.462,119.927C143.333,114.797 139.356,108.883 136.529,102.184C133.703,95.38 132.29,88 132.29,80.045C132.29,72.09 133.703,64.762 136.529,58.063C139.356,51.259 143.333,45.345 148.462,40.32C153.696,35.191 159.767,31.266 166.676,28.544C173.689,25.718 181.278,24.305 189.443,24.305C197.608,24.305 205.145,25.718 212.053,28.544C219.067,31.266 225.138,35.139 230.267,40.163C235.396,45.188 239.374,51.102 242.2,57.906C245.131,64.605 246.596,71.985 246.596,80.045C246.596,88.105 245.131,95.537 242.2,102.341C239.374,109.04 235.396,114.902 230.267,119.927C225.138,124.951 219.067,128.876 212.053,131.703C205.145,134.424 197.608,135.785 189.443,135.785ZM189.443,128.405C196.456,128.405 202.946,127.202 208.913,124.794C214.879,122.387 220.061,118.985 224.457,114.588C228.854,110.192 232.256,105.063 234.663,99.201C237.175,93.339 238.432,86.954 238.432,80.045C238.432,73.032 237.175,66.646 234.663,60.889C232.256,55.027 228.854,49.898 224.457,45.502C220.061,41.105 214.879,37.703 208.913,35.296C202.946,32.888 196.456,31.685 189.443,31.685C182.43,31.685 175.94,32.888 169.973,35.296C164.007,37.703 158.773,41.105 154.272,45.502C149.876,49.898 146.421,55.027 143.909,60.889C141.501,66.646 140.298,73.032 140.298,80.045C140.298,86.954 141.501,93.339 143.909,99.201C146.421,105.063 149.876,110.192 154.272,114.588C158.773,118.985 164.007,122.387 169.973,124.794C175.94,127.202 182.43,128.405 189.443,128.405ZM269.66,135L269.66,25.09L309.071,25.09C318.282,25.09 326.185,26.555 332.78,29.486C339.375,32.417 344.451,36.657 348.01,42.205C351.569,47.648 353.349,54.295 353.349,62.145C353.349,69.787 351.569,76.381 348.01,81.929C344.451,87.372 339.375,91.612 332.78,94.647C326.185,97.578 318.282,99.044 309.071,99.044L274.057,99.044L277.668,95.275L277.668,135L269.66,135ZM345.969,135L317.393,95.118L326.499,95.118L355.076,135L345.969,135ZM277.668,95.746L274.057,91.978L309.071,91.978C320.899,91.978 329.849,89.361 335.92,84.127C342.096,78.894 345.184,71.566 345.184,62.145C345.184,52.62 342.096,45.292 335.92,40.163C329.849,34.93 320.899,32.313 309.071,32.313L274.057,32.313L277.668,28.387L277.668,95.746ZM377.957,135L377.957,25.09L385.965,25.09L385.965,135L377.957,135ZM407.778,135L407.778,129.347L486.128,29.172L486.913,32.313L408.72,32.313L408.72,25.09L494.607,25.09L494.607,30.743L416.413,130.918L415.471,127.777L496.334,127.777L496.334,135L407.778,135ZM561.604,135.785C553.439,135.785 545.85,134.424 538.837,131.703C531.928,128.876 525.857,124.951 520.623,119.927C515.494,114.797 511.516,108.883 508.69,102.184C505.864,95.38 504.451,88 504.451,80.045C504.451,72.09 505.864,64.762 508.69,58.063C511.516,51.259 515.494,45.345 520.623,40.32C525.857,35.191 531.928,31.266 538.837,28.544C545.85,25.718 553.439,24.305 561.604,24.305C569.769,24.305 577.305,25.718 584.214,28.544C591.227,31.266 597.298,35.139 602.428,40.163C607.557,45.188 611.534,51.102 614.361,57.906C617.292,64.605 618.757,71.985 618.757,80.045C618.757,88.105 617.292,95.537 614.361,102.341C611.534,109.04 607.557,114.902 602.428,119.927C597.298,124.951 591.227,128.876 584.214,131.703C577.305,134.424 569.769,135.785 561.604,135.785ZM561.604,128.405C568.617,128.405 575.107,127.202 581.074,124.794C587.04,122.387 592.222,118.985 596.618,114.588C601.014,110.192 604.416,105.063 606.824,99.201C609.336,93.339 610.592,86.954 610.592,80.045C610.592,73.032 609.336,66.646 606.824,60.889C604.416,55.027 601.014,49.898 596.618,45.502C592.222,41.105 587.04,37.703 581.074,35.296C575.107,32.888 568.617,31.685 561.604,31.685C554.591,31.685 548.101,32.888 542.134,35.296C536.168,37.703 530.934,41.105 526.433,45.502C522.036,49.898 518.582,55.027 516.07,60.889C513.662,66.646 512.458,73.032 512.458,80.045C512.458,86.954 513.662,93.339 516.07,99.201C518.582,105.063 522.036,110.192 526.433,114.588C530.934,118.985 536.168,122.387 542.134,124.794C548.101,127.202 554.591,128.405 561.604,128.405ZM641.821,135L641.821,25.09L648.573,25.09L726.923,125.108L723.311,125.108L723.311,25.09L731.319,25.09L731.319,135L724.725,135L646.217,34.982L649.829,34.982L649.829,135L641.821,135ZM793.882,135.785C785.717,135.785 777.971,134.424 770.644,131.703C763.421,128.876 757.821,125.265 753.843,120.869L757.455,114.902C761.223,118.775 766.352,122.072 772.842,124.794C779.437,127.411 786.398,128.719 793.725,128.719C801.052,128.719 807.019,127.777 811.625,125.893C816.335,123.904 819.789,121.287 821.988,118.042C824.291,114.797 825.442,111.186 825.442,107.208C825.442,102.498 824.186,98.73 821.674,95.903C819.161,93.077 815.864,90.827 811.782,89.152C807.699,87.477 803.251,86.064 798.435,84.912C793.62,83.761 788.753,82.557 783.833,81.301C778.913,79.94 774.412,78.213 770.33,76.12C766.248,74.026 762.95,71.2 760.438,67.641C758.03,63.977 756.827,59.267 756.827,53.51C756.827,48.276 758.187,43.461 760.909,39.064C763.631,34.668 767.87,31.109 773.627,28.387C779.384,25.666 786.764,24.305 795.766,24.305C801.837,24.305 807.804,25.195 813.666,26.974C819.632,28.754 824.709,31.161 828.896,34.197L825.913,40.634C821.307,37.494 816.335,35.191 810.997,33.726C805.763,32.156 800.686,31.371 795.766,31.371C788.753,31.371 782.943,32.365 778.338,34.354C773.732,36.343 770.33,39.012 768.132,42.362C765.934,45.606 764.834,49.27 764.834,53.353C764.834,58.063 766.038,61.831 768.446,64.658C770.958,67.484 774.255,69.734 778.338,71.409C782.42,73.084 786.921,74.497 791.841,75.649C796.761,76.8 801.628,78.056 806.443,79.417C811.258,80.673 815.707,82.348 819.789,84.441C823.872,86.535 827.169,89.361 829.681,92.92C832.194,96.479 833.45,101.085 833.45,106.737C833.45,111.867 832.037,116.682 829.21,121.183C826.384,125.579 822.04,129.138 816.178,131.86C810.421,134.477 802.989,135.785 793.882,135.785Z" style="fill:rgb(218,209,187);fill-rule:nonzero;"/>
</svg>
